<svg id="visual" viewBox="0 0 1920 1080" width="1920" height="1080" xmlns="http://www.w3.org/2000/svg" xmlns:xlink="http://www.w3.org/1999/xlink" version="1.1"><path d="M0 195L29.2 209.5C58.3 224 116.7 253 174.8 256.7C233 260.3 291 238.7 349.2 260.2C407.3 281.7 465.7 346.3 523.8 353.5C582 360.7 640 310.3 698.2 288.8C756.3 267.3 814.7 274.7 872.8 254.8C931 235 989 188 1047.2 188C1105.3 188 1163.7 235 1221.8 272.8C1280 310.7 1338 339.3 1396.2 346.5C1454.3 353.7 1512.7 339.3 1570.8 326.8C1629 314.3 1687 303.7 1745.2 289.3C1803.3 275 1861.7 257 1890.8 248L1920 239L1920 0L1890.8 0C1861.7 0 1803.3 0 1745.2 0C1687 0 1629 0 1570.8 0C1512.7 0 1454.3 0 1396.2 0C1338 0 1280 0 1221.8 0C1163.7 0 1105.3 0 1047.2 0C989 0 931 0 872.8 0C814.7 0 756.3 0 698.2 0C640 0 582 0 523.8 0C465.7 0 407.3 0 349.2 0C291 0 233 0 174.8 0C116.7 0 58.3 0 29.2 0L0 0Z" fill="#6f3ac6"></path><path d="M0 347L29.2 363.2C58.3 379.3 116.7 411.7 174.8 404.3C233 397 291 350 349.2 380.5C407.3 411 465.7 519 523.8 535.3C582 551.7 640 476.3 698.2 440.3C756.3 404.3 814.7 407.7 872.8 396.8C931 386 989 361 1047.2 371.8C1105.3 382.7 1163.7 429.3 1221.8 454.5C1280 479.7 1338 483.3 1396.2 487C1454.3 490.7 1512.7 494.3 1570.8 480C1629 465.7 1687 433.3 1745.2 415.3C1803.3 397.3 1861.7 393.7 1890.8 391.8L1920 390L1920 237L1890.8 246C1861.7 255 1803.3 273 1745.2 287.3C1687 301.7 1629 312.3 1570.8 324.8C1512.7 337.3 1454.3 351.7 1396.2 344.5C1338 337.3 1280 308.7 1221.8 270.8C1163.7 233 1105.3 186 1047.2 186C989 186 931 233 872.8 252.8C814.7 272.7 756.3 265.3 698.2 286.8C640 308.3 582 358.7 523.8 351.5C465.7 344.3 407.3 279.7 349.2 258.2C291 236.7 233 258.3 174.8 254.7C116.7 251 58.3 222 29.2 207.5L0 193Z" fill="#5a22b7"></path><path d="M0 617L29.2 624.2C58.3 631.3 116.7 645.7 174.8 645.7C233 645.7 291 631.3 349.2 642.2C407.3 653 465.7 689 523.8 678.2C582 667.3 640 609.7 698.2 593.3C756.3 577 814.7 602 872.8 598.3C931 594.7 989 562.3 1047.2 580.3C1105.3 598.3 1163.7 666.7 1221.8 697.3C1280 728 1338 721 1396.2 704.8C1454.3 688.7 1512.7 663.3 1570.8 659.7C1629 656 1687 674 1745.2 672.2C1803.3 670.3 1861.7 648.7 1890.8 637.8L1920 627L1920 388L1890.8 389.8C1861.7 391.7 1803.3 395.3 1745.2 413.3C1687 431.3 1629 463.7 1570.8 478C1512.7 492.3 1454.3 488.7 1396.2 485C1338 481.3 1280 477.7 1221.8 452.5C1163.7 427.3 1105.3 380.7 1047.2 369.8C989 359 931 384 872.8 394.8C814.7 405.7 756.3 402.3 698.2 438.3C640 474.3 582 549.7 523.8 533.3C465.7 517 407.3 409 349.2 378.5C291 348 233 395 174.8 402.3C116.7 409.7 58.3 377.3 29.2 361.2L0 345Z" fill="#4400a9"></path><path d="M0 746L29.2 756.8C58.3 767.7 116.7 789.3 174.8 778.5C233 767.7 291 724.3 349.2 733.3C407.3 742.3 465.7 803.7 523.8 807.3C582 811 640 757 698.2 739C756.3 721 814.7 739 872.8 735.3C931 731.7 989 706.3 1047.2 728C1105.3 749.7 1163.7 818.3 1221.8 845.3C1280 872.3 1338 857.7 1396.2 846.8C1454.3 836 1512.7 829 1570.8 825.5C1629 822 1687 822 1745.2 805.8C1803.3 789.7 1861.7 757.3 1890.8 741.2L1920 725L1920 625L1890.8 635.8C1861.7 646.7 1803.3 668.3 1745.2 670.2C1687 672 1629 654 1570.8 657.7C1512.7 661.3 1454.3 686.7 1396.2 702.8C1338 719 1280 726 1221.8 695.3C1163.7 664.7 1105.3 596.3 1047.2 578.3C989 560.3 931 592.7 872.8 596.3C814.7 600 756.3 575 698.2 591.3C640 607.7 582 665.3 523.8 676.2C465.7 687 407.3 651 349.2 640.2C291 629.3 233 643.7 174.8 643.7C116.7 643.7 58.3 629.3 29.2 622.2L0 615Z" fill="#370893"></path><path d="M0 1081L29.2 1081C58.3 1081 116.7 1081 174.8 1081C233 1081 291 1081 349.2 1081C407.3 1081 465.7 1081 523.8 1081C582 1081 640 1081 698.2 1081C756.3 1081 814.7 1081 872.8 1081C931 1081 989 1081 1047.2 1081C1105.3 1081 1163.7 1081 1221.8 1081C1280 1081 1338 1081 1396.2 1081C1454.3 1081 1512.7 1081 1570.8 1081C1629 1081 1687 1081 1745.2 1081C1803.3 1081 1861.7 1081 1890.8 1081L1920 1081L1920 723L1890.8 739.2C1861.7 755.3 1803.3 787.7 1745.2 803.8C1687 820 1629 820 1570.8 823.5C1512.7 827 1454.3 834 1396.2 844.8C1338 855.7 1280 870.3 1221.8 843.3C1163.7 816.3 1105.3 747.7 1047.2 726C989 704.3 931 729.7 872.8 733.3C814.7 737 756.3 719 698.2 737C640 755 582 809 523.8 805.3C465.7 801.7 407.3 740.3 349.2 731.3C291 722.3 233 765.7 174.8 776.5C116.7 787.3 58.3 765.7 29.2 754.8L0 744Z" fill="#2c0c7d"></path></svg>